<svg xmlns="http://www.w3.org/2000/svg" xml:space="preserve" id="Layer_1" x="0" y="0" version="1.1" viewBox="0 0 512 512"><style>.st0{fill:#fff}</style><path d="M256 512c-68.4 0-132.7-26.6-181-75S0 324.4 0 256 26.6 123.3 75 75 187.6 0 256 0s132.7 26.6 181 75 75 112.6 75 181-26.6 132.7-75 181-112.6 75-181 75m0-505.1C118.6 6.9 6.9 118.6 6.9 256S118.6 505.1 256 505.1 505.1 393.4 505.1 256 393.4 6.9 256 6.9" class="st0"/><path d="M479.1 356.9c-3.3-18.4-8.7-36.3-14-54.2-3.6-13.5-7.2-26.3-10.2-36.1-4.7-15.7-9.5-31.5-15-47-.4-.9-7.5-20.9-10.9-30.6-3.9-11.1-8.2-22.2-12.1-33.4-8.2-22-16.3-44.1-25.4-65.8-.8-2.5-8.2-16.3-11.6-22-.8-1.4-2.5-3.4-4-4.8-3.9-3.7-17.3-10.7-29-16.1-2.1-.9-29.6-12.4-57.9-20-17-4.5-24.2-5.6-34.9-7.3-4.5-.7-9.5-1.6-11-1.9-7.2-1.5-16.4-.1-23.6 3.2-14 6.4-68.8 76-82 81.9-6.2 2.8-8 3.1-46.5 3l-38-.1c-31.2 42-49.6 94-49.6 150.3 0 56.4 18.5 108.4 49.7 150.5l69.1-.1c61.7 0 86.6.4 95 1.6 5.1.8 14.1 3.3 18.5 5.2 4.2 1.9 5.4 2.5 6.6 3.2.7.4 7.5 4.4 11.3 7.4 1.9 1.5 5.7 4.4 8.5 6.6 27.4 21.5 55 50.4 70.3 66.4 65-20.7 118.6-66.8 148.9-126.7-.8-5-1.8-10.9-2.2-13.2m-204.7-261c17.2 0 31.1 13.9 31.1 31.1s-13.9 31.1-31.1 31.1-31.1-13.9-31.1-31.1 13.9-31.1 31.1-31.1m-58.2 120c-17.2 0-31.1-13.9-31.1-31.1s13.9-31.1 31.1-31.1 31.1 13.9 31.1 31.1-13.9 31.1-31.1 31.1m58.1 58.8c-17.2 0-31.1-13.9-31.1-31.1s13.9-31.1 31.1-31.1 31.1 13.9 31.1 31.1c0 17.1-13.9 31.1-31.1 31.1m59.4-59.9c-17.2 0-31.1-13.9-31.1-31.1s13.9-31.1 31.1-31.1 31.1 13.9 31.1 31.1-13.9 31.1-31.1 31.1" class="st0"/></svg>