<svg xmlns="http://www.w3.org/2000/svg" width="500" height="410" version="1.0" viewBox="0 0 375 300"><defs><clipPath id="a"><path d="M36.488 0h302.25v302.25H36.488Zm0 0"/></clipPath><clipPath id="b"><path d="M187.613 0C104.13 0 36.488 67.64 36.488 151.125c0 83.484 67.64 151.125 151.125 151.125s151.125-67.64 151.125-151.125C338.738 67.641 271.098 0 187.613 0m0 252.133c-46.754 0-85.937-31.754-97.5-74.863 16.543-1.75 35.325-1.825 55.512 1.542l-.277.141c10.441 1.75 19.976 7.36 26.214 16.121l18.715 26.008c9.114 12.688 26.286 17.379 41.004 10.094 15.14-7.5 21.098-26.078 15.211-41.922-12.894-34.762-31.12-83.41-35.469-92.52-11.984-25.097-44.156-26.71-65.464-11.988-.282.207-.633.352-.91.563-.075.066-.145.066-.212.136-3.019 2.035-6.734 3.578-10.585 4.555-10.165 3.715-20.54 5.328-30.7 5.61 18.082-27.407 49.063-45.563 84.391-45.563 55.793 0 101.008 45.21 101.008 101.008 0 55.793-45.14 101.078-100.938 101.078m0 0"/></clipPath><clipPath id="c"><path d="M41.188 177.344h54.671v43.949H41.188Zm0 0"/></clipPath><clipPath id="d"><path d="M90.113 177.344c-20.328 2.097-37.363 6.726-48.925 10.722a145 145 0 0 0 5.183 16.473c.14.348.211.629.352.977 2.03 5.402 4.414 10.656 7.078 15.777 11.004-15.984 27.476-23.973 42.058-28.043-2.316-5.047-4.277-10.371-5.746-15.906m0 0"/></clipPath><clipPath id="e"><path d="M51.137 60.14h59.582v35.774H51.137Zm0 0"/></clipPath><clipPath id="f"><path d="M103.219 95.61c2.316-3.438 4.77-6.797 7.5-9.883h-.07S84.784 79.629 67.187 60.14a145 145 0 0 0-8.618 12.757l-.07.07a171 171 0 0 0-7.363 13.598c13.879 4.91 32.523 9.465 52.082 9.043m0 0"/></clipPath></defs><g clip-path="url(#a)"><g clip-path="url(#b)"><path fill="#fff" d="M36.488 0v302.25h302.25V0Zm0 0"/></g></g><path fill="#1c1f22" d="M176.68 117.898q0 .728-.14 1.438a7.4 7.4 0 0 1-1.102 2.652q-.398.606-.915 1.117a7 7 0 0 1-1.117.915q-.602.404-1.27.68a7 7 0 0 1-1.382.417q-.708.146-1.438.145-.72.001-1.433-.145a7 7 0 0 1-1.38-.418 7.3 7.3 0 0 1-3.304-2.71 7.4 7.4 0 0 1-1.102-2.652 7.7 7.7 0 0 1-.136-1.439q.001-.722.137-1.433a7.3 7.3 0 0 1 .422-1.38q.275-.672.68-1.276.403-.598.913-1.114.516-.509 1.114-.918a8 8 0 0 1 1.277-.68 7.4 7.4 0 0 1 4.25-.418c.476.094.933.239 1.383.419a8 8 0 0 1 1.27.68q.607.408 1.116.917a7.3 7.3 0 0 1 1.594 2.39 7.3 7.3 0 0 1 .563 2.813m0 29.09a7.3 7.3 0 0 1-.563 2.817q-.275.675-.68 1.273-.398.604-.914 1.113-.508.515-1.117.918a8 8 0 0 1-1.27.68 7.4 7.4 0 0 1-2.82.559 7.4 7.4 0 0 1-2.812-.559 8 8 0 0 1-1.277-.68 7.6 7.6 0 0 1-1.114-.918 7.4 7.4 0 0 1-2.015-3.77 7.6 7.6 0 0 1 0-2.87c.093-.473.238-.93.422-1.38a7.4 7.4 0 0 1 1.594-2.387 7.3 7.3 0 0 1 2.39-1.594 7 7 0 0 1 1.379-.417 7 7 0 0 1 1.433-.144c.489 0 .965.047 1.438.144.476.094.934.23 1.383.418q.666.275 1.27.68a7 7 0 0 1 1.116.914q.516.512.915 1.117.404.6.68 1.27c.187.45.323.906.421 1.379q.14.715.14 1.437m-14.581-14.578q0 .721-.141 1.438-.142.707-.418 1.379a7.6 7.6 0 0 1-.68 1.27c-.27.401-.574.776-.918 1.116q-.51.516-1.113.914-.601.41-1.273.68a7 7 0 0 1-1.383.418q-.709.146-1.434.145c-.484 0-.96-.047-1.437-.145a7 7 0 0 1-1.38-.418 6.6 6.6 0 0 1-1.269-.68 7.2 7.2 0 0 1-2.031-2.031 6.6 6.6 0 0 1-.68-1.27 7.5 7.5 0 0 1-.421-1.378 7.4 7.4 0 0 1 0-2.871c.097-.477.234-.938.421-1.383.18-.45.407-.871.68-1.274q.4-.603.91-1.113a7.2 7.2 0 0 1 1.121-.918 7.6 7.6 0 0 1 1.27-.68c.45-.183.906-.324 1.379-.418a7.4 7.4 0 0 1 4.254.418c.449.188.87.414 1.273.68q.604.403 1.113.918.515.51.918 1.113a7.34 7.34 0 0 1 1.238 4.09m29.091 0q0 .721-.141 1.438a7.2 7.2 0 0 1-.422 1.379q-.27.669-.68 1.27a7.2 7.2 0 0 1-2.03 2.03q-.601.41-1.27.68a7 7 0 0 1-1.38.418 7 7 0 0 1-1.437.145q-.725.001-1.433-.145a7 7 0 0 1-1.383-.418 6.7 6.7 0 0 1-1.274-.68 7 7 0 0 1-1.113-.914 7.2 7.2 0 0 1-.918-1.117 7.6 7.6 0 0 1-.68-1.27 7.5 7.5 0 0 1-.418-1.378 7.4 7.4 0 0 1 0-2.871 7.34 7.34 0 0 1 2.016-3.77q.51-.514 1.113-.918a7.34 7.34 0 0 1 4.09-1.238q.724 0 1.438.14.709.142 1.379.418.669.282 1.27.68a7.2 7.2 0 0 1 2.03 2.031c.274.403.5.825.68 1.274q.281.668.422 1.383.14.708.14 1.433m0 0"/><g clip-path="url(#c)"><g clip-path="url(#d)"><path fill="#1c1b22" d="M41.188 177.344v43.949h54.671v-43.95Zm0 0"/></g></g><g clip-path="url(#e)"><g clip-path="url(#f)"><path fill="#1c1b22" d="M51.137 60.14v35.774h59.582V60.141Zm0 0"/></g></g></svg>