<svg xmlns="http://www.w3.org/2000/svg" xmlns:xlink="http://www.w3.org/1999/xlink" width="500" zoomAndPan="magnify"
    viewBox="0 0 375 300" height="410" preserveAspectRatio="xMidYMid meet" version="1.0">
    <defs>
        <g />
        <clipPath id="63aadafd6a">
            <path d="M 36.488281 0 L 338.738281 0 L 338.738281 302.25 L 36.488281 302.25 Z M 36.488281 0 "
                clip-rule="nonzero" />
        </clipPath>
        <clipPath id="7150a12092">
            <path
                d="M 187.613281 0 C 104.128906 0 36.488281 67.640625 36.488281 151.125 C 36.488281 234.609375 104.128906 302.25 187.613281 302.25 C 271.097656 302.25 338.738281 234.609375 338.738281 151.125 C 338.738281 67.640625 271.097656 0 187.613281 0 Z M 187.613281 252.132812 C 140.859375 252.132812 101.675781 220.378906 90.113281 177.269531 C 106.65625 175.519531 125.4375 175.445312 145.625 178.8125 L 145.347656 178.953125 C 155.789062 180.703125 165.324219 186.3125 171.5625 195.074219 L 190.277344 221.082031 C 199.390625 233.769531 216.5625 238.460938 231.28125 231.175781 C 246.421875 223.675781 252.378906 205.097656 246.492188 189.253906 C 233.597656 154.492188 215.371094 105.84375 211.023438 96.734375 C 199.039062 71.636719 166.867188 70.023438 145.558594 84.746094 C 145.277344 84.953125 144.925781 85.097656 144.648438 85.308594 C 144.574219 85.375 144.503906 85.375 144.4375 85.445312 C 141.417969 87.480469 137.703125 89.023438 133.851562 90 C 123.6875 93.714844 113.3125 95.328125 103.152344 95.609375 C 121.234375 68.203125 152.214844 50.046875 187.542969 50.046875 C 243.335938 50.046875 288.550781 95.257812 288.550781 151.054688 C 288.550781 206.847656 243.410156 252.132812 187.613281 252.132812 Z M 187.613281 252.132812 "
                clip-rule="nonzero" />
        </clipPath>
        <linearGradient x1="284.942798" gradientTransform="matrix(0.700954, 0, 0, 0.700954, -190.900201, -227.388725)"
            y1="687.256553" x2="795.055906" gradientUnits="userSpaceOnUse" y2="392.744207" id="37e8819132">
            <stop stop-opacity="1" stop-color="rgb(22.698975%, 0%, 80.39856%)" offset="0" />
            <stop stop-opacity="1" stop-color="rgb(22.698975%, 0%, 80.39856%)" offset="0.125" />
            <stop stop-opacity="1" stop-color="rgb(22.698975%, 0%, 80.39856%)" offset="0.132812" />
            <stop stop-opacity="1" stop-color="rgb(23.080444%, 0%, 80.580139%)" offset="0.136719" />
            <stop stop-opacity="1" stop-color="rgb(23.461914%, 0%, 80.761719%)" offset="0.140625" />
            <stop stop-opacity="1" stop-color="rgb(23.701477%, 0%, 80.780029%)" offset="0.144531" />
            <stop stop-opacity="1" stop-color="rgb(23.942566%, 0%, 80.799866%)" offset="0.148438" />
            <stop stop-opacity="1" stop-color="rgb(24.333191%, 0%, 80.999756%)" offset="0.152344" />
            <stop stop-opacity="1" stop-color="rgb(24.723816%, 0%, 81.199646%)" offset="0.15625" />
            <stop stop-opacity="1" stop-color="rgb(25.114441%, 0%, 81.199646%)" offset="0.160156" />
            <stop stop-opacity="1" stop-color="rgb(25.505066%, 0%, 81.199646%)" offset="0.164062" />
            <stop stop-opacity="1" stop-color="rgb(25.895691%, 0%, 81.393433%)" offset="0.167969" />
            <stop stop-opacity="1" stop-color="rgb(26.286316%, 0%, 81.587219%)" offset="0.171875" />
            <stop stop-opacity="1" stop-color="rgb(26.477051%, 0%, 81.593323%)" offset="0.179688" />
            <stop stop-opacity="1" stop-color="rgb(27.058411%, 0%, 81.773376%)" offset="0.183594" />
            <stop stop-opacity="1" stop-color="rgb(27.449036%, 0%, 81.948853%)" offset="0.1875" />
            <stop stop-opacity="1" stop-color="rgb(27.839661%, 0%, 81.990051%)" offset="0.191406" />
            <stop stop-opacity="1" stop-color="rgb(28.230286%, 0%, 82.03125%)" offset="0.195313" />
            <stop stop-opacity="1" stop-color="rgb(28.421021%, 0%, 82.214355%)" offset="0.203125" />
            <stop stop-opacity="1" stop-color="rgb(29.00238%, 0%, 82.398987%)" offset="0.207031" />
            <stop stop-opacity="1" stop-color="rgb(29.393005%, 0%, 82.398987%)" offset="0.210938" />
            <stop stop-opacity="1" stop-color="rgb(29.78363%, 0%, 82.548523%)" offset="0.214844" />
            <stop stop-opacity="1" stop-color="rgb(30.174255%, 0%, 82.699585%)" offset="0.21875" />
            <stop stop-opacity="1" stop-color="rgb(30.56488%, 0%, 82.699585%)" offset="0.222656" />
            <stop stop-opacity="1" stop-color="rgb(30.955505%, 0%, 82.699585%)" offset="0.226563" />
            <stop stop-opacity="1" stop-color="rgb(31.195068%, 0%, 82.899475%)" offset="0.230469" />
            <stop stop-opacity="1" stop-color="rgb(31.436157%, 0%, 83.099365%)" offset="0.234375" />
            <stop stop-opacity="1" stop-color="rgb(31.82373%, 0%, 83.108521%)" offset="0.238281" />
            <stop stop-opacity="1" stop-color="rgb(32.21283%, 0%, 83.117676%)" offset="0.242188" />
            <stop stop-opacity="1" stop-color="rgb(32.556152%, 0%, 83.308411%)" offset="0.246094" />
            <stop stop-opacity="1" stop-color="rgb(32.899475%, 0%, 83.499146%)" offset="0.25" />
            <stop stop-opacity="1" stop-color="rgb(33.2901%, 0%, 83.68988%)" offset="0.253906" />
            <stop stop-opacity="1" stop-color="rgb(33.680725%, 0%, 83.880615%)" offset="0.257813" />
            <stop stop-opacity="1" stop-color="rgb(33.87146%, 0%, 83.889771%)" offset="0.265625" />
            <stop stop-opacity="1" stop-color="rgb(34.501648%, 0%, 84.098816%)" offset="0.269531" />
            <stop stop-opacity="1" stop-color="rgb(34.942627%, 0%, 84.298706%)" offset="0.273438" />
            <stop stop-opacity="1" stop-color="rgb(35.333252%, 0%, 84.298706%)" offset="0.277344" />
            <stop stop-opacity="1" stop-color="rgb(35.723877%, 0%, 84.298706%)" offset="0.28125" />
            <stop stop-opacity="1" stop-color="rgb(35.914612%, 0%, 84.498596%)" offset="0.285156" />
            <stop stop-opacity="1" stop-color="rgb(36.105347%, 0%, 84.698486%)" offset="0.289063" />
            <stop stop-opacity="1" stop-color="rgb(36.495972%, 0%, 84.698486%)" offset="0.292969" />
            <stop stop-opacity="1" stop-color="rgb(36.886597%, 0%, 84.698486%)" offset="0.296875" />
            <stop stop-opacity="1" stop-color="rgb(37.231445%, 0%, 84.883118%)" offset="0.300781" />
            <stop stop-opacity="1" stop-color="rgb(37.576294%, 0%, 85.067749%)" offset="0.304688" />
            <stop stop-opacity="1" stop-color="rgb(37.962341%, 0%, 85.083008%)" offset="0.308594" />
            <stop stop-opacity="1" stop-color="rgb(38.349915%, 0%, 85.099792%)" offset="0.3125" />
            <stop stop-opacity="1" stop-color="rgb(38.589478%, 0%, 85.299683%)" offset="0.316406" />
            <stop stop-opacity="1" stop-color="rgb(38.830566%, 0%, 85.499573%)" offset="0.320313" />
            <stop stop-opacity="1" stop-color="rgb(39.221191%, 0%, 85.505676%)" offset="0.324219" />
            <stop stop-opacity="1" stop-color="rgb(39.611816%, 0%, 85.51178%)" offset="0.328125" />
            <stop stop-opacity="1" stop-color="rgb(40.002441%, 0%, 85.705566%)" offset="0.332031" />
            <stop stop-opacity="1" stop-color="rgb(40.393066%, 0%, 85.899353%)" offset="0.335938" />
            <stop stop-opacity="1" stop-color="rgb(40.783691%, 0%, 85.899353%)" offset="0.339844" />
            <stop stop-opacity="1" stop-color="rgb(41.174316%, 0%, 85.899353%)" offset="0.34375" />
            <stop stop-opacity="1" stop-color="rgb(41.365051%, 0%, 86.099243%)" offset="0.347656" />
            <stop stop-opacity="1" stop-color="rgb(41.555786%, 0%, 86.299133%)" offset="0.351563" />
            <stop stop-opacity="1" stop-color="rgb(41.990662%, 0%, 86.317444%)" offset="0.355469" />
            <stop stop-opacity="1" stop-color="rgb(42.427063%, 0%, 86.33728%)" offset="0.359375" />
            <stop stop-opacity="1" stop-color="rgb(42.771912%, 0%, 86.517334%)" offset="0.363281" />
            <stop stop-opacity="1" stop-color="rgb(43.118286%, 0%, 86.698914%)" offset="0.367188" />
            <stop stop-opacity="1" stop-color="rgb(43.309021%, 0%, 86.898804%)" offset="0.371094" />
            <stop stop-opacity="1" stop-color="rgb(43.499756%, 0%, 87.098694%)" offset="0.375" />
            <stop stop-opacity="1" stop-color="rgb(43.890381%, 0%, 87.098694%)" offset="0.378906" />
            <stop stop-opacity="1" stop-color="rgb(44.281006%, 0%, 87.098694%)" offset="0.382813" />
            <stop stop-opacity="1" stop-color="rgb(44.671631%, 0%, 87.280273%)" offset="0.386719" />
            <stop stop-opacity="1" stop-color="rgb(45.062256%, 0%, 87.461853%)" offset="0.390625" />
            <stop stop-opacity="1" stop-color="rgb(45.501709%, 0%, 87.480164%)" offset="0.394531" />
            <stop stop-opacity="1" stop-color="rgb(45.942688%, 0%, 87.5%)" offset="0.398438" />
            <stop stop-opacity="1" stop-color="rgb(46.133423%, 0%, 87.649536%)" offset="0.40625" />
            <stop stop-opacity="1" stop-color="rgb(46.714783%, 0%, 87.799072%)" offset="0.410156" />
            <stop stop-opacity="1" stop-color="rgb(47.105408%, 0%, 87.799072%)" offset="0.414063" />
            <stop stop-opacity="1" stop-color="rgb(47.447205%, 0%, 87.992859%)" offset="0.417969" />
            <stop stop-opacity="1" stop-color="rgb(47.790527%, 0%, 88.186646%)" offset="0.421875" />
            <stop stop-opacity="1" stop-color="rgb(48.178101%, 0%, 88.192749%)" offset="0.425781" />
            <stop stop-opacity="1" stop-color="rgb(48.5672%, 0%, 88.198853%)" offset="0.429688" />
            <stop stop-opacity="1" stop-color="rgb(48.757935%, 0%, 88.398743%)" offset="0.433594" />
            <stop stop-opacity="1" stop-color="rgb(48.948669%, 0%, 88.598633%)" offset="0.4375" />
            <stop stop-opacity="1" stop-color="rgb(49.389648%, 0%, 88.613892%)" offset="0.441406" />
            <stop stop-opacity="1" stop-color="rgb(49.830627%, 0%, 88.630676%)" offset="0.445313" />
            <stop stop-opacity="1" stop-color="rgb(50.221252%, 0%, 88.815308%)" offset="0.449219" />
            <stop stop-opacity="1" stop-color="rgb(50.611877%, 0%, 88.999939%)" offset="0.453125" />
            <stop stop-opacity="1" stop-color="rgb(50.805664%, 0%, 88.999939%)" offset="0.460938" />
            <stop stop-opacity="1" stop-color="rgb(51.387024%, 0%, 89.199829%)" offset="0.464844" />
            <stop stop-opacity="1" stop-color="rgb(51.774597%, 0%, 89.399719%)" offset="0.46875" />
            <stop stop-opacity="1" stop-color="rgb(52.119446%, 0%, 89.399719%)" offset="0.472656" />
            <stop stop-opacity="1" stop-color="rgb(52.46582%, 0%, 89.399719%)" offset="0.476563" />
            <stop stop-opacity="1" stop-color="rgb(52.882385%, 0%, 89.599609%)" offset="0.480469" />
            <stop stop-opacity="1" stop-color="rgb(53.29895%, 0%, 89.7995%)" offset="0.484375" />
            <stop stop-opacity="1" stop-color="rgb(53.507996%, 0%, 89.99939%)" offset="0.488281" />
            <stop stop-opacity="1" stop-color="rgb(53.718567%, 0%, 90.19928%)" offset="0.492188" />
            <stop stop-opacity="1" stop-color="rgb(54.109192%, 0%, 90.19928%)" offset="0.496094" />
            <stop stop-opacity="1" stop-color="rgb(54.499817%, 0%, 90.19928%)" offset="0.5" />
            <stop stop-opacity="1" stop-color="rgb(54.890442%, 0%, 90.390015%)" offset="0.503906" />
            <stop stop-opacity="1" stop-color="rgb(55.281067%, 0%, 90.58075%)" offset="0.507812" />
            <stop stop-opacity="1" stop-color="rgb(55.671692%, 0%, 90.589905%)" offset="0.511719" />
            <stop stop-opacity="1" stop-color="rgb(56.062317%, 0%, 90.59906%)" offset="0.515625" />
            <stop stop-opacity="1" stop-color="rgb(56.30188%, 0%, 90.79895%)" offset="0.519531" />
            <stop stop-opacity="1" stop-color="rgb(56.542969%, 0%, 90.99884%)" offset="0.523438" />
            <stop stop-opacity="1" stop-color="rgb(56.930542%, 0%, 90.99884%)" offset="0.527344" />
            <stop stop-opacity="1" stop-color="rgb(57.318115%, 0%, 90.99884%)" offset="0.53125" />
            <stop stop-opacity="1" stop-color="rgb(57.661438%, 0%, 91.19873%)" offset="0.535156" />
            <stop stop-opacity="1" stop-color="rgb(58.004761%, 0%, 91.398621%)" offset="0.539063" />
            <stop stop-opacity="1" stop-color="rgb(58.201599%, 0%, 91.398621%)" offset="0.542969" />
            <stop stop-opacity="1" stop-color="rgb(58.399963%, 0%, 91.398621%)" offset="0.546875" />
            <stop stop-opacity="1" stop-color="rgb(58.782959%, 0%, 91.598511%)" offset="0.550781" />
            <stop stop-opacity="1" stop-color="rgb(59.16748%, 0%, 91.799927%)" offset="0.554688" />
            <stop stop-opacity="1" stop-color="rgb(59.558105%, 0%, 91.799927%)" offset="0.558594" />
            <stop stop-opacity="1" stop-color="rgb(59.94873%, 0%, 91.799927%)" offset="0.5625" />
            <stop stop-opacity="1" stop-color="rgb(60.372925%, 0%, 91.999817%)" offset="0.566406" />
            <stop stop-opacity="1" stop-color="rgb(60.798645%, 0%, 92.199707%)" offset="0.570312" />
            <stop stop-opacity="1" stop-color="rgb(61.004639%, 0%, 92.204285%)" offset="0.574219" />
            <stop stop-opacity="1" stop-color="rgb(61.212158%, 0%, 92.208862%)" offset="0.578125" />
            <stop stop-opacity="1" stop-color="rgb(61.602783%, 0%, 92.353821%)" offset="0.582031" />
            <stop stop-opacity="1" stop-color="rgb(61.993408%, 0%, 92.498779%)" offset="0.585938" />
            <stop stop-opacity="1" stop-color="rgb(62.336731%, 0%, 92.498779%)" offset="0.589844" />
            <stop stop-opacity="1" stop-color="rgb(62.680054%, 0%, 92.498779%)" offset="0.59375" />
            <stop stop-opacity="1" stop-color="rgb(63.067627%, 0%, 92.698669%)" offset="0.597656" />
            <stop stop-opacity="1" stop-color="rgb(63.4552%, 0%, 92.89856%)" offset="0.601562" />
            <stop stop-opacity="1" stop-color="rgb(63.694763%, 0%, 92.91687%)" offset="0.605469" />
            <stop stop-opacity="1" stop-color="rgb(63.935852%, 0%, 92.936707%)" offset="0.609375" />
            <stop stop-opacity="1" stop-color="rgb(64.326477%, 0%, 93.118286%)" offset="0.613281" />
            <stop stop-opacity="1" stop-color="rgb(64.717102%, 0%, 93.299866%)" offset="0.617188" />
            <stop stop-opacity="1" stop-color="rgb(65.107727%, 0%, 93.499756%)" offset="0.621094" />
            <stop stop-opacity="1" stop-color="rgb(65.498352%, 0%, 93.699646%)" offset="0.625" />
            <stop stop-opacity="1" stop-color="rgb(65.698242%, 0%, 93.699646%)" offset="0.628906" />
            <stop stop-opacity="1" stop-color="rgb(65.899658%, 0%, 93.699646%)" offset="0.632812" />
            <stop stop-opacity="1" stop-color="rgb(66.279602%, 0%, 93.8797%)" offset="0.636719" />
            <stop stop-opacity="1" stop-color="rgb(66.661072%, 0%, 94.061279%)" offset="0.640625" />
            <stop stop-opacity="1" stop-color="rgb(67.095947%, 0%, 94.07959%)" offset="0.644531" />
            <stop stop-opacity="1" stop-color="rgb(67.532349%, 0%, 94.099426%)" offset="0.648438" />
            <stop stop-opacity="1" stop-color="rgb(67.877197%, 0%, 94.299316%)" offset="0.652344" />
            <stop stop-opacity="1" stop-color="rgb(68.223572%, 0%, 94.499207%)" offset="0.65625" />
            <stop stop-opacity="1" stop-color="rgb(68.414307%, 0%, 94.499207%)" offset="0.664062" />
            <stop stop-opacity="1" stop-color="rgb(68.995667%, 0%, 94.692993%)" offset="0.667969" />
            <stop stop-opacity="1" stop-color="rgb(69.386292%, 0%, 94.88678%)" offset="0.671875" />
            <stop stop-opacity="1" stop-color="rgb(69.776917%, 0%, 94.892883%)" offset="0.675781" />
            <stop stop-opacity="1" stop-color="rgb(70.167542%, 0%, 94.898987%)" offset="0.679688" />
            <stop stop-opacity="1" stop-color="rgb(70.558167%, 0%, 95.098877%)" offset="0.683594" />
            <stop stop-opacity="1" stop-color="rgb(70.948792%, 0%, 95.298767%)" offset="0.6875" />
            <stop stop-opacity="1" stop-color="rgb(71.18988%, 0%, 95.314026%)" offset="0.691406" />
            <stop stop-opacity="1" stop-color="rgb(71.430969%, 0%, 95.330811%)" offset="0.695312" />
            <stop stop-opacity="1" stop-color="rgb(71.820068%, 0%, 95.513916%)" offset="0.699219" />
            <stop stop-opacity="1" stop-color="rgb(72.209167%, 0%, 95.698547%)" offset="0.703125" />
            <stop stop-opacity="1" stop-color="rgb(72.550964%, 0%, 95.698547%)" offset="0.707031" />
            <stop stop-opacity="1" stop-color="rgb(72.892761%, 0%, 95.698547%)" offset="0.710937" />
            <stop stop-opacity="1" stop-color="rgb(73.095703%, 0%, 95.898438%)" offset="0.714844" />
            <stop stop-opacity="1" stop-color="rgb(73.298645%, 0%, 96.099854%)" offset="0.71875" />
            <stop stop-opacity="1" stop-color="rgb(73.677063%, 0%, 96.099854%)" offset="0.722656" />
            <stop stop-opacity="1" stop-color="rgb(74.055481%, 0%, 96.099854%)" offset="0.726562" />
            <stop stop-opacity="1" stop-color="rgb(74.494934%, 0%, 96.299744%)" offset="0.730469" />
            <stop stop-opacity="1" stop-color="rgb(74.935913%, 0%, 96.499634%)" offset="0.734375" />
            <stop stop-opacity="1" stop-color="rgb(75.326538%, 0%, 96.699524%)" offset="0.738281" />
            <stop stop-opacity="1" stop-color="rgb(75.717163%, 0%, 96.899414%)" offset="0.742188" />
            <stop stop-opacity="1" stop-color="rgb(75.907898%, 0%, 96.899414%)" offset="0.75" />
            <stop stop-opacity="1" stop-color="rgb(76.489258%, 0%, 97.090149%)" offset="0.753906" />
            <stop stop-opacity="1" stop-color="rgb(76.879883%, 0%, 97.280884%)" offset="0.757812" />
            <stop stop-opacity="1" stop-color="rgb(77.224731%, 0%, 97.290039%)" offset="0.761719" />
            <stop stop-opacity="1" stop-color="rgb(77.571106%, 0%, 97.299194%)" offset="0.765625" />
            <stop stop-opacity="1" stop-color="rgb(77.984619%, 0%, 97.44873%)" offset="0.769531" />
            <stop stop-opacity="1" stop-color="rgb(78.399658%, 0%, 97.599792%)" offset="0.773438" />
            <stop stop-opacity="1" stop-color="rgb(78.611755%, 0%, 97.599792%)" offset="0.777344" />
            <stop stop-opacity="1" stop-color="rgb(78.823853%, 0%, 97.599792%)" offset="0.78125" />
            <stop stop-opacity="1" stop-color="rgb(79.214478%, 0%, 97.799683%)" offset="0.785156" />
            <stop stop-opacity="1" stop-color="rgb(79.605103%, 0%, 97.999573%)" offset="0.789063" />
            <stop stop-opacity="1" stop-color="rgb(79.995728%, 0%, 97.999573%)" offset="0.792969" />
            <stop stop-opacity="1" stop-color="rgb(80.386353%, 0%, 97.999573%)" offset="0.796875" />
            <stop stop-opacity="1" stop-color="rgb(80.592346%, 0%, 98.199463%)" offset="0.800781" />
            <stop stop-opacity="1" stop-color="rgb(80.799866%, 0%, 98.399353%)" offset="0.804688" />
            <stop stop-opacity="1" stop-color="rgb(81.173706%, 0%, 98.399353%)" offset="0.808594" />
            <stop stop-opacity="1" stop-color="rgb(81.549072%, 0%, 98.399353%)" offset="0.8125" />
            <stop stop-opacity="1" stop-color="rgb(81.985474%, 0%, 98.599243%)" offset="0.816406" />
            <stop stop-opacity="1" stop-color="rgb(82.421875%, 0%, 98.799133%)" offset="0.820312" />
            <stop stop-opacity="1" stop-color="rgb(82.766724%, 0%, 98.805237%)" offset="0.824219" />
            <stop stop-opacity="1" stop-color="rgb(83.111572%, 0%, 98.81134%)" offset="0.828125" />
            <stop stop-opacity="1" stop-color="rgb(83.305359%, 0%, 99.005127%)" offset="0.835938" />
            <stop stop-opacity="1" stop-color="rgb(83.886719%, 0%, 99.198914%)" offset="0.839844" />
            <stop stop-opacity="1" stop-color="rgb(84.274292%, 0%, 99.198914%)" offset="0.84375" />
            <stop stop-opacity="1" stop-color="rgb(84.664917%, 0%, 99.398804%)" offset="0.847656" />
            <stop stop-opacity="1" stop-color="rgb(85.055542%, 0%, 99.598694%)" offset="0.851562" />
            <stop stop-opacity="1" stop-color="rgb(85.476685%, 0%, 99.798584%)" offset="0.855469" />
            <stop stop-opacity="1" stop-color="rgb(85.899353%, 0%, 100%)" offset="0.859375" />
            <stop stop-opacity="1" stop-color="rgb(86.099243%, 0%, 100%)" offset="0.863281" />
            <stop stop-opacity="1" stop-color="rgb(86.299133%, 0%, 100%)" offset="0.867188" />
            <stop stop-opacity="1" stop-color="rgb(86.299133%, 0%, 100%)" offset="0.875" />
            <stop stop-opacity="1" stop-color="rgb(86.299133%, 0%, 100%)" offset="1" />
        </linearGradient>
        <clipPath id="56c60a6125">
            <path
                d="M 41.1875 177.34375 L 95.859375 177.34375 L 95.859375 221.292969 L 41.1875 221.292969 Z M 41.1875 177.34375 "
                clip-rule="nonzero" />
        </clipPath>
        <clipPath id="8b97cbe103">
            <path
                d="M 90.113281 177.34375 C 69.785156 179.441406 52.75 184.070312 41.1875 188.066406 C 42.585938 193.671875 44.339844 199.210938 46.371094 204.539062 C 46.511719 204.886719 46.582031 205.167969 46.722656 205.515625 C 48.753906 210.917969 51.136719 216.171875 53.800781 221.292969 C 64.804688 205.308594 81.277344 197.320312 95.859375 193.25 C 93.542969 188.203125 91.582031 182.878906 90.113281 177.34375 Z M 90.113281 177.34375 "
                clip-rule="nonzero" />
        </clipPath>
        <clipPath id="fbe5306e37">
            <path
                d="M 51.136719 60.140625 L 110.71875 60.140625 L 110.71875 95.914062 L 51.136719 95.914062 Z M 51.136719 60.140625 "
                clip-rule="nonzero" />
        </clipPath>
        <clipPath id="0a8f682a16">
            <path
                d="M 103.21875 95.609375 C 105.535156 92.171875 107.988281 88.8125 110.71875 85.726562 L 110.648438 85.726562 C 110.648438 85.726562 84.785156 79.628906 67.1875 60.140625 C 64.105469 64.207031 61.230469 68.480469 58.570312 72.898438 C 58.570312 72.898438 58.5 72.96875 58.5 72.96875 C 55.835938 77.386719 53.382812 81.941406 51.136719 86.566406 C 65.015625 91.476562 83.660156 96.03125 103.21875 95.609375 Z M 103.21875 95.609375 "
                clip-rule="nonzero" />
        </clipPath>
    </defs>
    <g clip-path="url(#63aadafd6a)">
        <g clip-path="url(#7150a12092)">
            <path fill="url(#37e8819132)"
                d="M 36.488281 0 L 36.488281 302.25 L 338.738281 302.25 L 338.738281 0 Z M 36.488281 0 "
                fill-rule="nonzero" />
        </g>
    </g>
    <path fill="#1c1f22"
        d="M 176.679688 117.898438 C 176.679688 118.382812 176.632812 118.863281 176.539062 119.335938 C 176.441406 119.8125 176.304688 120.269531 176.117188 120.71875 C 175.933594 121.164062 175.707031 121.585938 175.4375 121.988281 C 175.171875 122.390625 174.867188 122.765625 174.523438 123.105469 C 174.183594 123.445312 173.8125 123.753906 173.40625 124.019531 C 173.003906 124.289062 172.582031 124.515625 172.136719 124.699219 C 171.6875 124.886719 171.230469 125.023438 170.753906 125.117188 C 170.28125 125.214844 169.804688 125.261719 169.316406 125.261719 C 168.835938 125.261719 168.359375 125.214844 167.882812 125.117188 C 167.410156 125.023438 166.945312 124.886719 166.503906 124.699219 C 166.054688 124.515625 165.632812 124.289062 165.226562 124.019531 C 164.828125 123.753906 164.457031 123.445312 164.113281 123.105469 C 163.773438 122.765625 163.46875 122.390625 163.199219 121.988281 C 162.929688 121.585938 162.703125 121.164062 162.519531 120.71875 C 162.335938 120.269531 162.191406 119.8125 162.097656 119.335938 C 162.007812 118.863281 161.960938 118.382812 161.960938 117.898438 C 161.960938 117.417969 162.007812 116.9375 162.097656 116.464844 C 162.191406 115.992188 162.335938 115.527344 162.519531 115.085938 C 162.703125 114.636719 162.929688 114.210938 163.199219 113.808594 C 163.46875 113.410156 163.773438 113.039062 164.113281 112.695312 C 164.457031 112.355469 164.828125 112.050781 165.226562 111.777344 C 165.632812 111.511719 166.054688 111.285156 166.503906 111.097656 C 166.945312 110.917969 167.410156 110.773438 167.882812 110.679688 C 168.359375 110.585938 168.835938 110.539062 169.316406 110.539062 C 169.804688 110.539062 170.28125 110.585938 170.753906 110.679688 C 171.230469 110.773438 171.6875 110.917969 172.136719 111.097656 C 172.582031 111.285156 173.003906 111.511719 173.40625 111.777344 C 173.8125 112.050781 174.183594 112.355469 174.523438 112.695312 C 174.867188 113.039062 175.171875 113.410156 175.4375 113.808594 C 175.707031 114.210938 175.933594 114.636719 176.117188 115.085938 C 176.304688 115.527344 176.441406 115.992188 176.539062 116.464844 C 176.632812 116.9375 176.679688 117.417969 176.679688 117.898438 Z M 176.679688 117.898438 "
        fill-opacity="1" fill-rule="nonzero" />
    <path fill="#1c1f22"
        d="M 176.679688 146.988281 C 176.679688 147.472656 176.632812 147.953125 176.539062 148.421875 C 176.441406 148.898438 176.304688 149.359375 176.117188 149.804688 C 175.933594 150.253906 175.707031 150.679688 175.4375 151.078125 C 175.171875 151.480469 174.867188 151.851562 174.523438 152.191406 C 174.183594 152.535156 173.8125 152.839844 173.40625 153.109375 C 173.003906 153.375 172.582031 153.601562 172.136719 153.789062 C 171.6875 153.972656 171.230469 154.113281 170.753906 154.207031 C 170.28125 154.300781 169.804688 154.347656 169.316406 154.347656 C 168.835938 154.347656 168.359375 154.300781 167.882812 154.207031 C 167.410156 154.113281 166.945312 153.972656 166.503906 153.789062 C 166.054688 153.601562 165.632812 153.375 165.226562 153.109375 C 164.828125 152.839844 164.457031 152.535156 164.113281 152.191406 C 163.773438 151.851562 163.46875 151.480469 163.199219 151.078125 C 162.929688 150.679688 162.703125 150.253906 162.519531 149.804688 C 162.335938 149.359375 162.191406 148.898438 162.097656 148.421875 C 162.007812 147.953125 161.960938 147.472656 161.960938 146.988281 C 161.960938 146.507812 162.007812 146.027344 162.097656 145.550781 C 162.191406 145.078125 162.335938 144.621094 162.519531 144.171875 C 162.703125 143.726562 162.929688 143.300781 163.199219 142.902344 C 163.46875 142.5 163.773438 142.125 164.113281 141.785156 C 164.457031 141.445312 164.828125 141.136719 165.226562 140.871094 C 165.632812 140.601562 166.054688 140.375 166.503906 140.191406 C 166.945312 140.003906 167.410156 139.867188 167.882812 139.773438 C 168.359375 139.675781 168.835938 139.628906 169.316406 139.628906 C 169.804688 139.628906 170.28125 139.675781 170.753906 139.773438 C 171.230469 139.867188 171.6875 140.003906 172.136719 140.191406 C 172.582031 140.375 173.003906 140.601562 173.40625 140.871094 C 173.8125 141.136719 174.183594 141.445312 174.523438 141.785156 C 174.867188 142.125 175.171875 142.5 175.4375 142.902344 C 175.707031 143.300781 175.933594 143.726562 176.117188 144.171875 C 176.304688 144.621094 176.441406 145.078125 176.539062 145.550781 C 176.632812 146.027344 176.679688 146.507812 176.679688 146.988281 Z M 176.679688 146.988281 "
        fill-opacity="1" fill-rule="nonzero" />
    <path fill="#1c1f22"
        d="M 162.097656 132.410156 C 162.097656 132.890625 162.050781 133.371094 161.957031 133.847656 C 161.863281 134.320312 161.722656 134.777344 161.539062 135.226562 C 161.351562 135.671875 161.125 136.097656 160.859375 136.496094 C 160.589844 136.898438 160.285156 137.273438 159.941406 137.613281 C 159.601562 137.957031 159.230469 138.261719 158.828125 138.527344 C 158.425781 138.800781 158.003906 139.027344 157.554688 139.207031 C 157.109375 139.394531 156.648438 139.53125 156.171875 139.625 C 155.699219 139.722656 155.222656 139.769531 154.738281 139.769531 C 154.253906 139.769531 153.777344 139.722656 153.300781 139.625 C 152.828125 139.53125 152.371094 139.394531 151.921875 139.207031 C 151.476562 139.027344 151.050781 138.800781 150.652344 138.527344 C 150.246094 138.261719 149.875 137.957031 149.53125 137.613281 C 149.191406 137.273438 148.886719 136.898438 148.621094 136.496094 C 148.347656 136.097656 148.121094 135.671875 147.941406 135.226562 C 147.753906 134.777344 147.617188 134.320312 147.519531 133.847656 C 147.425781 133.371094 147.378906 132.890625 147.378906 132.410156 C 147.378906 131.925781 147.425781 131.449219 147.519531 130.976562 C 147.617188 130.5 147.753906 130.039062 147.941406 129.59375 C 148.121094 129.144531 148.347656 128.722656 148.621094 128.320312 C 148.886719 127.917969 149.191406 127.546875 149.53125 127.207031 C 149.875 126.863281 150.246094 126.558594 150.652344 126.289062 C 151.050781 126.023438 151.476562 125.796875 151.921875 125.609375 C 152.371094 125.425781 152.828125 125.285156 153.300781 125.191406 C 153.777344 125.097656 154.253906 125.050781 154.738281 125.050781 C 155.222656 125.050781 155.699219 125.097656 156.171875 125.191406 C 156.648438 125.285156 157.109375 125.425781 157.554688 125.609375 C 158.003906 125.796875 158.425781 126.023438 158.828125 126.289062 C 159.230469 126.558594 159.601562 126.863281 159.941406 127.207031 C 160.285156 127.546875 160.589844 127.917969 160.859375 128.320312 C 161.125 128.722656 161.351562 129.144531 161.539062 129.59375 C 161.722656 130.039062 161.863281 130.5 161.957031 130.976562 C 162.050781 131.449219 162.097656 131.925781 162.097656 132.410156 Z M 162.097656 132.410156 "
        fill-opacity="1" fill-rule="nonzero" />
    <path fill="#1c1f22"
        d="M 191.1875 132.410156 C 191.1875 132.890625 191.140625 133.371094 191.046875 133.847656 C 190.953125 134.320312 190.8125 134.777344 190.625 135.226562 C 190.445312 135.671875 190.21875 136.097656 189.945312 136.496094 C 189.679688 136.898438 189.375 137.273438 189.035156 137.613281 C 188.691406 137.957031 188.320312 138.261719 187.914062 138.527344 C 187.515625 138.800781 187.089844 139.027344 186.644531 139.207031 C 186.199219 139.394531 185.738281 139.53125 185.265625 139.625 C 184.789062 139.722656 184.3125 139.769531 183.828125 139.769531 C 183.34375 139.769531 182.867188 139.722656 182.394531 139.625 C 181.917969 139.53125 181.457031 139.394531 181.011719 139.207031 C 180.5625 139.027344 180.140625 138.800781 179.738281 138.527344 C 179.335938 138.261719 178.964844 137.957031 178.625 137.613281 C 178.28125 137.273438 177.976562 136.898438 177.707031 136.496094 C 177.441406 136.097656 177.214844 135.671875 177.027344 135.226562 C 176.84375 134.777344 176.703125 134.320312 176.609375 133.847656 C 176.515625 133.371094 176.46875 132.890625 176.46875 132.410156 C 176.46875 131.925781 176.515625 131.449219 176.609375 130.976562 C 176.703125 130.5 176.84375 130.039062 177.027344 129.59375 C 177.214844 129.144531 177.441406 128.722656 177.707031 128.320312 C 177.976562 127.917969 178.28125 127.546875 178.625 127.207031 C 178.964844 126.863281 179.335938 126.558594 179.738281 126.289062 C 180.140625 126.023438 180.5625 125.796875 181.011719 125.609375 C 181.457031 125.425781 181.917969 125.285156 182.394531 125.191406 C 182.867188 125.097656 183.34375 125.050781 183.828125 125.050781 C 184.3125 125.050781 184.789062 125.097656 185.265625 125.191406 C 185.738281 125.285156 186.199219 125.425781 186.644531 125.609375 C 187.089844 125.796875 187.515625 126.023438 187.914062 126.289062 C 188.320312 126.558594 188.691406 126.863281 189.035156 127.207031 C 189.375 127.546875 189.679688 127.917969 189.945312 128.320312 C 190.21875 128.722656 190.445312 129.144531 190.625 129.59375 C 190.8125 130.039062 190.953125 130.5 191.046875 130.976562 C 191.140625 131.449219 191.1875 131.925781 191.1875 132.410156 Z M 191.1875 132.410156 "
        fill-opacity="1" fill-rule="nonzero" />
    <g clip-path="url(#56c60a6125)">
        <g clip-path="url(#8b97cbe103)">
            <path fill="#1c1b22"
                d="M 41.1875 177.34375 L 41.1875 221.292969 L 95.859375 221.292969 L 95.859375 177.34375 Z M 41.1875 177.34375 "
                fill-rule="nonzero" />
        </g>
    </g>    <g clip-path="url(#fbe5306e37)">
        <g clip-path="url(#0a8f682a16)">
            <path fill="#1c1b22"
                d="M 51.136719 60.140625 L 51.136719 95.914062 L 110.71875 95.914062 L 110.71875 60.140625 Z M 51.136719 60.140625 "
                fill-rule="nonzero" />
        </g>
    </g>
</svg>
