<svg xmlns="http://www.w3.org/2000/svg" width="1000" height="672.88" viewBox="0 0 264.583 130.948"><path fill="#32de84" d="M196.867 44.67 218.8 6.676c1.238-2.13.49-4.836-1.612-6.074-2.101-1.237-4.835-.518-6.044 1.612l-22.221 38.484c-16.954-7.743-36.037-12.06-56.56-12.06s-39.607 4.317-56.56 12.06L53.582 2.214A4.43 4.43 0 0 0 47.509.602a4.43 4.43 0 0 0-1.612 6.074L67.83 44.67C30.008 65.164 4.39 103.446.16 148.262h264.406c-4.23-44.816-29.848-83.098-67.699-103.592M71.658 111.131c-6.13 0-11.082-4.98-11.082-11.081 0-6.131 4.98-11.082 11.082-11.082 6.13 0 11.082 4.98 11.082 11.082.029 6.102-4.951 11.081-11.082 11.081m121.381 0c-6.13 0-11.082-4.98-11.082-11.081 0-6.131 4.98-11.082 11.082-11.082 6.13 0 11.082 4.98 11.082 11.082.028 6.102-4.951 11.081-11.082 11.081"/></svg>