<svg xmlns="http://www.w3.org/2000/svg" xmlns:xlink="http://www.w3.org/1999/xlink" width="512" height="512" viewBox="0 0 512 512"><defs><linearGradient id="a"><stop offset="0" style="stop-color:#303fa1;stop-opacity:1"/><stop offset="1" style="stop-color:#7b88cc;stop-opacity:1"/></linearGradient><linearGradient xlink:href="#a" id="b" x1="67.561" x2="393.774" y1="393.774" y2="67.561" gradientUnits="userSpaceOnUse"/></defs><path fill="#fff" d="M441.333 210.668H413.32c-3.87-35.745-17.991-68.41-39.364-95.005l19.816-19.816c7.81-7.811 7.81-20.474 0-28.284-7.811-7.811-20.475-7.811-28.285 0l-19.816 19.816c-26.595-21.373-59.26-35.493-95.005-39.363V20.001c0-11.046-8.954-20-20-20s-20 8.954-20 20v28.013c-35.745 3.87-68.411 17.991-95.006 39.364L95.845 67.561c-7.811-7.811-20.474-7.811-28.284 0s-7.811 20.474 0 28.284l19.816 19.816c-21.373 26.595-35.494 59.26-39.364 95.006H20c-11.046 0-20 8.954-20 20s8.954 20 20 20h28.013c3.87 35.745 17.991 68.411 39.364 95.006l-19.816 19.816c-7.811 7.811-7.811 20.474 0 28.284 3.905 3.905 9.023 5.858 14.142 5.858s10.237-1.953 14.142-5.858l19.816-19.816c26.595 21.373 59.26 35.494 95.006 39.364v28.013c0 11.046 8.954 20 20 20s20-8.954 20-20V413.32c35.745-3.87 68.411-17.991 95.006-39.363l19.816 19.816c3.905 3.905 9.024 5.858 14.143 5.858s10.237-1.953 14.143-5.858c7.81-7.811 7.81-20.474 0-28.284l-19.816-19.816c21.373-26.595 35.493-59.26 39.363-95.005h28.013c11.046 0 20-8.954 20-20s-8.956-20-20.002-20m-325.472-66.522 39.524 39.524a88.2 88.2 0 0 0-11.196 26.997H88.307c3.354-24.236 12.788-47.012 27.554-66.521M88.307 250.668h55.882a88.2 88.2 0 0 0 11.196 26.997l-39.524 39.525c-14.766-19.511-24.2-42.286-27.554-66.522m122.36 122.359c-24.237-3.354-47.013-12.788-66.522-27.554l39.525-39.524a88.2 88.2 0 0 0 26.997 11.196zm0-228.838a88.2 88.2 0 0 0-26.997 11.196l-39.524-39.524c19.509-14.766 42.284-24.2 66.521-27.554zm40-55.881c24.236 3.354 47.011 12.788 66.52 27.554l-39.524 39.524a88.2 88.2 0 0 0-26.996-11.196zm0 284.719v-55.882a88.2 88.2 0 0 0 26.997-11.196l39.524 39.524c-19.51 14.765-42.285 24.2-66.521 27.554m94.805-55.838-39.525-39.524a88.2 88.2 0 0 0 11.196-26.997h55.882c-3.353 24.236-12.787 47.011-27.553 66.521m-28.328-106.521a88.2 88.2 0 0 0-11.196-26.996l39.524-39.524c14.766 19.508 24.2 42.283 27.554 66.52z" style="fill:url(#b)" transform="translate(25 25)"/></svg>