<svg xmlns="http://www.w3.org/2000/svg" width="1000" height="300" viewBox="0 0 1000 300"><g style="fill:#03a9f4;fill-opacity:1" transform="translate(85.383 932.654)scale(7.78404)"><path d="M29.167-109.503c1.2 2.085 1.18 17.183-.027 19.266s-14.291 9.613-16.697 9.61c-2.407-.003-15.472-7.57-16.672-9.656-1.2-2.085-1.18-17.183.026-19.266s14.291-9.613 16.698-9.61 15.471 7.57 16.672 9.656" style="opacity:1;fill:#03a9f4;fill-opacity:1;stroke:none;stroke-width:1.1;stroke-miterlimit:4;stroke-dasharray:none;stroke-dashoffset:0;stroke-opacity:1" transform="rotate(-30 10.994 -99.26)"/><rect width="8.743" height="8.743" x="2.221" y="-104.918" ry="2.418" style="opacity:1;fill:#fff;fill-opacity:1;stroke:none;stroke-width:2.3;stroke-miterlimit:4;stroke-dasharray:none;stroke-dashoffset:0;stroke-opacity:1"/><g transform="translate(0 .145)"><rect width="8.743" height="8.743" x="9.089" y="-98.734" ry="2.418" style="opacity:1;fill:#fff;fill-opacity:1;stroke:none;stroke-width:2.3;stroke-miterlimit:4;stroke-dasharray:none;stroke-dashoffset:0;stroke-opacity:1"/><rect width="8.743" height="8.743" x="9.089" y="-111.39" ry="2.418" style="opacity:1;fill:#fff;fill-opacity:1;stroke:none;stroke-width:2.3;stroke-miterlimit:4;stroke-dasharray:none;stroke-dashoffset:0;stroke-opacity:1"/></g></g><g style="font-weight:500;font-size:26.6256px;line-height:0%;font-family:&quot;Maven Pro&quot;;-inkscape-font-specification:&quot;Maven Pro, Medium&quot;;letter-spacing:0;word-spacing:0;stroke-width:2.21881px"><path fill="#03a9f4" stroke="#03a9f4" d="M246.648 103.304q-26.83 0-26.83-29.695t26.83-29.695q4.602 0 9.03 1.13 4.428 1.128 8.596 3.125v5.991q-8.162-4.341-16.931-4.341-11.027 0-16.063 5.73-4.95 5.73-4.95 18.06t4.95 18.06q5.036 5.731 16.063 5.731 4.428 0 8.683-1.042 4.254-1.042 8.248-3.213v5.992q-4.168 1.91-8.596 3.039-4.428 1.128-9.03 1.128zm35.599-.694h-6.251V42.786h6.251zm31.693 1.302q-10.16 0-15.109-5.991-4.862-6.078-4.862-16.845 0-11.287 5.123-16.93 5.21-5.645 14.674-5.645 7.033 0 11.461 2.866 4.428 2.778 6.512 7.901 2.084 5.036 2.084 11.808 0 10.68-5.21 16.758-5.123 6.078-14.674 6.078zm-.087-5.73q5.296 0 8.248-2.258 2.952-2.344 4.168-6.165 1.302-3.907 1.302-8.683 0-7.727-3.039-12.242-3.039-4.602-10.68-4.602-5.209 0-8.161 2.257t-4.255 6.078q-1.215 3.734-1.215 8.51 0 7.64 3.039 12.416 3.039 4.688 10.593 4.688zm49.838 5.73q-8.682 0-13.458-4.428-4.688-4.515-4.688-12.764V59.283h6.251V85.33q0 6.599 2.865 9.725 2.953 3.039 9.03 3.039 6.078 0 8.944-3.04 2.952-3.125 2.952-9.724V59.283h6.251V86.72q0 8.249-4.775 12.764-4.689 4.428-13.372 4.428zm50.013 0q-3.126 0-6.599-.955-3.473-.868-6.599-3.3-3.039-2.517-5.036-7.12-1.91-4.688-1.91-12.155 0-10.072 4.862-15.89 4.95-5.904 14.935-5.904 2.344 0 5.643.782 3.3.694 5.991 1.736V40.962h6.252v54.18q0 2.432-1.736 4.168-1.65 1.65-4.342 2.692-2.692.955-5.73 1.39-3.04.52-5.731.52zm.087-5.73q4.515 0 7.814-1.042 3.386-1.042 3.386-2.605V67.358q-2.691-1.563-5.817-2.258-3.039-.781-5.817-.781-7.12 0-10.16 4.515-3.038 4.428-3.038 11.548 0 4.689 1.042 8.77 1.042 3.993 3.994 6.511t8.596 2.518zm31.344 4.428V62.756q1.042-.434 3.994-1.476 3.04-1.042 7.207-1.91 4.255-.869 8.77-.869.694 0 1.389.174l1.39.347v5.557q-4.516-.52-8.51 0-3.994.521-7.988 1.216v36.815zm47.495 1.302q-10.159 0-15.108-5.991-4.862-6.078-4.862-16.845 0-11.287 5.123-16.93 5.21-5.645 14.673-5.645 7.033 0 11.462 2.866 4.428 2.778 6.512 7.901 2.084 5.036 2.084 11.808 0 10.68-5.21 16.758-5.123 6.078-14.674 6.078zm-.087-5.73q5.297 0 8.249-2.258 2.952-2.344 4.168-6.165 1.302-3.907 1.302-8.683 0-7.727-3.039-12.242-3.039-4.602-10.68-4.602-5.21 0-8.162 2.257t-4.254 6.078q-1.216 3.734-1.216 8.51 0 7.64 3.04 12.416 3.038 4.688 10.592 4.688zm31.692-35.426q8.422-4.255 18.32-4.255 9.465 0 13.285 4.168 3.908 4.168 3.908 11.722v28.219h-6.252V74.39q0-1.562-.434-3.299-.347-1.736-1.476-3.3-1.129-1.649-3.473-2.604-2.345-1.042-6.252-1.042-5.383 0-11.374 1.737v36.728h-6.252z" aria-label="Cloudron" style="font-weight:400;font-size:86.8273px;line-height:100%;-inkscape-font-specification:&quot;Maven Pro&quot;" transform="translate(-30.257 20.358)scale(1.78971)"/></g></svg>