<svg xmlns="http://www.w3.org/2000/svg" xml:space="preserve" viewBox="0 0 1080 1080"><linearGradient id="a" x1="542.001" x2="542.001" y1="364.472" y2="715.528" gradientUnits="userSpaceOnUse"><stop offset="0" style="stop-color:#f7e318"/><stop offset="1" style="stop-color:#c69200"/></linearGradient><path d="M393.5 541.9h-59.4v-76.5h59.4zm0 13.9h-59.4v66.6h59.4zm0 79.7h-59.4v80h59.4zm275.6-271L542 483.4 414.9 364.5h-80.7V455h59.4v-48.8L542 542.8l148.4-136.6V455h59.4v-90.5zM542 559.2 408.3 440.8v60.3L542 629.5l133.7-128.4v-60.3zm148.5-17.3h59.4v-76.5h-59.4zm0 80.5h59.4v-66.6h-59.4zm0 93.1h59.4v-80h-59.4z" style="fill:url(#a)"/><linearGradient id="b" x1="188.454" x2="891.547" y1="188.455" y2="891.548" gradientUnits="userSpaceOnUse"><stop offset="0" style="stop-color:#f7e318"/><stop offset="1" style="stop-color:#c69200"/></linearGradient><path d="M540 1049.2c-71.6 0-123.6-48.7-165.3-87.9-18.9-17.8-36.8-34.5-52.7-43.7-17.2-9.9-41.5-17.5-67.2-25.5C198 874.5 133.6 854.5 99 794.7c-33.6-58.2-19.3-123.1-6.6-180.4 6-27.2 11.7-52.9 11.7-74.3s-5.7-47.1-11.7-74.3c-12.7-57.3-27-122.2 6.6-180.4 34.6-59.8 99-79.8 155.8-97.4 25.7-8 50.1-15.5 67.2-25.5 15.9-9.2 33.8-26 52.7-43.7 41.7-39.1 93.7-87.9 165.3-87.9s123.6 48.7 165.3 87.9c18.9 17.8 36.8 34.5 52.7 43.7 17.2 9.9 41.5 17.5 67.2 25.5 56.8 17.6 121.2 37.6 155.8 97.4 33.6 58.2 19.3 123.1 6.6 180.4-6 27.2-11.7 52.9-11.7 74.3s5.7 47.1 11.7 74.3c12.7 57.3 27 122.2-6.6 180.4-34.6 59.8-99 79.8-155.8 97.4-25.7 8-50.1 15.5-67.2 25.5-15.9 9.2-33.8 26-52.7 43.7-41.7 39.2-93.7 87.9-165.3 87.9m0-901.2c-25.3 0-55.7 28.5-85.1 56.1-22.9 21.5-46.6 43.7-74.2 59.7-28.5 16.5-60.4 26.4-91.2 36-38.1 11.8-77.4 24-89.1 44.2-10.8 18.7-2.1 58.2 6.4 96.4 7.1 32.2 14.5 65.4 14.5 99.6s-7.3 67.5-14.5 99.6c-8.4 38.2-17.2 77.7-6.4 96.4 11.7 20.1 51 32.4 89.1 44.2 30.8 9.6 62.6 19.4 91.2 36 27.6 16 51.3 38.2 74.2 59.7 29.4 27.6 59.8 56.1 85.1 56.1s55.7-28.5 85.1-56.1c22.9-21.5 46.6-43.7 74.2-59.7 28.5-16.5 60.4-26.4 91.2-36 38.1-11.8 77.4-24 89.1-44.2 10.8-18.7 2.1-58.2-6.4-96.4-7.1-32.2-14.5-65.4-14.5-99.6s7.3-67.5 14.5-99.6c8.4-38.2 17.2-77.7 6.4-96.4-11.7-20.1-51-32.4-89.1-44.2-30.8-9.6-62.6-19.4-91.2-36-27.6-16-51.3-38.2-74.2-59.7-29.4-27.6-59.8-56.1-85.1-56.1" style="fill:url(#b)"/></svg>