<svg xmlns="http://www.w3.org/2000/svg" width="2500" height="731" viewBox="0.05 0 799.9 234"><g fill="#13bef9"><path d="M55.82 51.44h-3.57v18.49h3.57zm15.35 0H67.6v18.49h3.57zm20.97-35.27-3.66-6.35L27.44 45.1l3.66 6.34z"/><path d="m91.78 16.17 3.66-6.35 61.04 35.28-3.66 6.34z"/><path d="M167.27 51.53v-7.32H.05v7.32z"/><path fill-rule="evenodd" d="M101.06 154.96V46.44h7.32v113.79c-1.97-2.24-4.46-3.84-7.32-5.27m-12.49-1.88V0h7.32v153.98c-2.06-.99-7.05-.9-7.32-.9m-69.34 15.27c-8.92-6.6-14.81-17.14-14.81-29.11 0-6.34 1.69-12.59 4.82-18.04H71.7c3.21 5.45 4.82 11.7 4.82 18.04 0 5.54-.71 10.72-2.94 15.36-4.73-4.55-11.69-6.52-18.74-6.52-12.5 0-23.2 7.77-25.97 19.38-.98-.09-1.61-.18-2.59-.18-2.41.09-4.73.45-7.05 1.07m157.5-82.16c17.67 0 32.22 14.56 32.22 32.24 0 17.42-14.55 32.51-32.22 32.51-9.46 0-17.84-4.47-23.47-11.43v38.13h-9.46V87.17h9.46v10.18c5.71-6.79 14.01-11.16 23.47-11.16m.27 55.37c12.58 0 22.04-10.9 22.04-23.22 0-12.59-9.46-22.86-22.04-22.86-12.31 0-23.2 10.27-23.2 22.86 0 12.32 10.89 23.22 23.2 23.22m73.35 9.29c-17.67 0-32.21-15.09-32.21-32.51 0-17.68 14.54-32.24 32.21-32.24s32.22 14.56 32.22 32.24c0 17.42-14.55 32.51-32.22 32.51m0-55.37c-12.58 0-22.31 10.36-22.31 22.86 0 12.32 9.73 23.22 22.31 23.22s22.31-10.9 22.31-23.22c0-12.59-9.73-22.86-22.31-22.86"/><path d="M306.84 87.17h-9.46v62.16h9.46v-34.38c0-12.69 9.99-19.47 21.06-19.47v-9.29c-8.57 0-15.98 3.66-21.06 9.46zm60.86 8.57v-8.57h-14.01V62.7h-9.46v24.47h-9.28v8.57h9.28v53.59h9.46V95.74z"/><path fill-rule="evenodd" d="M407.67 150.85c-17.66 0-32.21-15.09-32.21-32.42 0-17.68 14.55-32.24 32.21-32.24 9.46 0 17.85 4.37 23.47 11.16V87.17h9.46v62.43h-9.46v-10.18c-5.71 6.87-14.01 11.43-23.47 11.43m-.35-9.29c12.31 0 23.2-10.9 23.2-23.22 0-12.59-10.89-22.86-23.2-22.86-12.58 0-22.04 10.27-22.04 22.86 0 12.32 9.46 23.22 22.04 23.22"/><path d="M465.68 74.58c3.57 0 6.6-2.95 6.6-6.79 0-3.4-3.12-6.52-6.6-6.52-3.84 0-6.78 3.12-6.78 6.52 0 3.84 2.94 6.79 6.78 6.79m-4.82 74.75h9.9V87.17h-9.9zm29.8 0h9.46v-33.04c0-14.03 7.77-21.08 20.35-20.81 10.35 0 15.97 6.07 15.97 18.39v35.46h9.46v-35.46c0-19.82-7.58-27.68-25.43-27.68-8.48 0-15.35 3.12-20.35 8.48v-7.5h-9.46z"/><path fill-rule="evenodd" d="M623.71 118.34v4.47h-54.07c1.96 10.27 10.88 18.75 21.86 18.75 7.23 0 13.3-3.57 17.22-8.66h11.69c-5.17 10.72-16.33 17.95-28.91 17.95-17.67 0-32.21-15.09-32.21-32.51 0-17.68 14.54-32.24 32.21-32.24s32.21 14.56 32.21 32.24M591.5 95.48c-10.98 0-19.81 7.94-21.95 18.22h43.81c-2.05-10.28-10.97-18.22-21.86-18.22"/><path d="M647.99 87.17h-9.46v62.16h9.46v-34.38c0-12.69 9.99-19.47 21.06-19.47v-9.29c-8.66 0-15.98 3.66-21.06 9.46zm35.33 62.88c4.2 0 7.77-3.58 7.77-7.95 0-4.2-3.57-7.77-7.77-7.77-4.37 0-7.94 3.57-7.94 7.77 0 4.37 3.57 7.95 7.94 7.95m32.13-75.47c3.57 0 6.6-2.95 6.6-6.79 0-3.4-3.12-6.52-6.6-6.52-3.84 0-6.78 3.12-6.78 6.52.09 3.84 3.03 6.79 6.78 6.79m-4.73 74.75h9.9V87.17h-9.9z"/><path fill-rule="evenodd" d="M767.74 150.85c-17.67 0-32.21-15.09-32.21-32.51 0-17.68 14.54-32.24 32.21-32.24s32.21 14.56 32.21 32.24c0 17.42-14.54 32.51-32.21 32.51m0-55.37c-12.58 0-22.31 10.36-22.31 22.86 0 12.32 9.73 23.22 22.31 23.22s22.31-10.9 22.31-23.22c0-12.59-9.73-22.86-22.31-22.86"/><path d="M49.93 78.15H31.01v19.02h18.92zm-21.33 0H9.68v19.02H28.6zm0 21.17H9.68v19.02H28.6zm21.33 0H31.01v19.02h18.92zm21.24 0H52.25v19.02h18.92zm0-31.35H52.25v19.02h18.92z"/><path fill-rule="evenodd" d="M31.99 171.21c2.59-10.98 12.5-19.2 24.27-19.2 7.59 0 14.37 3.39 19.01 8.75 4.02-2.77 8.84-4.37 14.1-4.37 13.74 0 24.9 11.16 24.9 24.92 0 2.85-.45 5.53-1.34 8.12 3.03 4.11 4.91 9.29 4.91 14.83 0 13.75-11.16 24.92-24.9 24.92-6.07 0-11.6-2.15-15.88-5.72C72.51 229.8 65.1 234 56.71 234c-9.64 0-18.02-5.54-22.22-13.58-1.69.36-3.39.54-5.17.54-13.75 0-24.99-11.16-24.99-24.92 0-13.75 11.15-24.92 24.99-24.92.89-.09 1.78-.09 2.67.09"/></g></svg>