<svg xmlns="http://www.w3.org/2000/svg" width="300" height="79.84"><path d="m0 0 3.45.323q.318-1.738 1.27-2.558.958-.812 2.583-.812c1.144 0 2.008.245 2.595.726.58.492.867 1.053.867 1.695 0 .417-.123.78-.364 1.072-.245.287-.671.547-1.277.753-.419.16-1.367.415-2.844.79-1.905.469-3.243 1.056-4.004 1.745-1.08.98-1.622 2.174-1.622 3.572 0 .9.249 1.751.765 2.527.506.788 1.244 1.387 2.205 1.803.958.4 2.105.609 3.472.609q3.312-.002 4.994-1.461c1.119-.99 1.702-2.289 1.757-3.919l-3.572-.12c-.158.89-.474 1.546-.98 1.948-.496.399-1.247.599-2.241.599-1.031 0-1.841-.212-2.421-.644-.38-.278-.567-.635-.567-1.091 0-.425.174-.775.528-1.074.445-.386 1.538-.779 3.266-1.183q2.597-.618 3.834-1.279 1.243-.66 1.947-1.809c.464-.748.706-1.704.706-2.827 0-1.012-.284-1.97-.845-2.851s-1.357-1.547-2.382-1.98c-1.029-.421-2.308-.646-3.84-.646-2.231 0-3.949.521-5.143 1.564Q.349-2.971 0 0" style="fill:#a7a5a6;fill-opacity:1;fill-rule:nonzero;stroke:none" transform="matrix(2.98613 0 0 -2.98613 2 42.747)"/><path d="M0 0h3.582l3.06-9.109L9.624 0h3.491L8.628-12.336l-.822-2.251q-.444-1.125-.845-1.714a3.6 3.6 0 0 0-.925-.967 4.3 4.3 0 0 0-1.284-.569 6.6 6.6 0 0 0-1.728-.216 9 9 0 0 0-1.915.216l-.28 2.665a7 7 0 0 1 1.425-.166c.78 0 1.361.23 1.734.689q.565.71.864 1.782z" style="fill:#a7a5a6;fill-opacity:1;fill-rule:nonzero;stroke:none" transform="matrix(2.98613 0 0 -2.98613 43.493 21.641)"/><path d="M0 0h-3.373v6.532c0 1.376-.07 2.263-.219 2.673-.148.405-.377.721-.709.947-.326.223-.726.336-1.183.336a2.76 2.76 0 0 1-1.593-.487 2.4 2.4 0 0 1-.967-1.264c-.171-.536-.261-1.509-.261-2.946V0h-3.366v12.832h3.118v-1.879c1.122 1.421 2.53 2.123 4.229 2.123.755 0 1.438-.138 2.061-.396.622-.278 1.096-.612 1.408-1.035q.476-.63.665-1.418c.125-.523.19-1.291.19-2.276z" style="fill:#a7a5a6;fill-opacity:1;fill-rule:nonzero;stroke:none" transform="matrix(2.98613 0 0 -2.98613 117.731 59.959)"/><path d="M0 0c0-1.281.3-2.26.909-2.924C1.516-3.609 2.26-3.95 3.15-3.95q1.334 0 2.241 1.026c.596.664.896 1.654.896 2.94q-.001 1.902-.896 2.908c-.606.671-1.351 1.019-2.241 1.019S1.516 3.595.909 2.924C.3 2.253 0 1.273 0 0m-3.453.171c0 1.138.281 2.218.835 3.279a5.76 5.76 0 0 0 2.36 2.417c1.019.557 2.157.828 3.411.828q2.914.001 4.768-1.888Q9.784 2.915 9.785.032c0-1.941-.628-3.543-1.88-4.822-1.25-1.272-2.83-1.919-4.729-1.919a7.5 7.5 0 0 0-3.363.802q-1.6.796-2.431 2.341c-.554 1.02-.835 2.267-.835 3.737" style="fill:#a7a5a6;fill-opacity:1;fill-rule:nonzero;stroke:none" transform="matrix(2.98613 0 0 -2.98613 128.1 40.908)"/><path d="M0 0v-16.567q.001-1.187.169-1.563.173-.391.524-.586.36-.198 1.319-.199v-.496H-4.11v.496c.574 0 .964.059 1.184.184.202.123.366.31.485.587.12.271.175.796.175 1.577v11.305c0 1.423-.029 2.293-.09 2.622-.058.326-.162.544-.297.66a.76.76 0 0 1-.523.191c-.228 0-.522-.084-.873-.223l-.233.485L-.605 0z" style="fill:#231f20;fill-opacity:1;fill-rule:nonzero;stroke:none" transform="matrix(2.98613 0 0 -2.98613 169.678 1.995)"/><path d="M0 0c-.484 0-.967-.125-1.454-.419-.487-.289-.883-.783-1.184-1.493-.299-.724-.45-1.64-.45-2.764 0-1.817.367-3.366 1.085-4.693.726-1.304 1.677-1.969 2.857-1.969.89 0 1.615.372 2.183 1.09q.865 1.084.865 3.742c0 2.216-.478 3.947-1.433 5.22C1.822-.421.999 0 0 0m.419.919C2.318.919 3.837.2 4.987-1.238q1.461-1.838 1.461-4.223c0-1.122-.264-2.254-.803-3.394-.539-1.144-1.277-2.009-2.225-2.589-.944-.583-1.989-.874-3.146-.874q-2.838.002-4.501 2.246a6.96 6.96 0 0 0-1.409 4.257c0 1.148.284 2.279.851 3.405C-4.21-1.27-3.463-.441-2.531.114c.929.532 1.912.805 2.95.805" style="fill:#231f20;fill-opacity:1;fill-rule:nonzero;stroke:none" transform="matrix(2.98613 0 0 -2.98613 192.585 24.263)"/><path d="M0 0c-.671 0-1.225-.28-1.681-.813-.45-.532-.673-1.331-.673-2.437q0-2.135.919-3.318c.473-.594 1.064-.891 1.783-.891.686 0 1.254.263 1.692.777q.662.77.661 2.413c0 1.442-.306 2.56-.928 3.37C1.305-.31.718 0 0 0m-2.489-12.184a6.2 6.2 0 0 1-.942-1.29c-.216-.38-.316-.753-.316-1.078 0-.447.258-.82.784-1.146.909-.555 2.221-.844 3.934-.844 1.63 0 2.829.289 3.61.863.78.568 1.164 1.176 1.164 1.825 0 .461-.232.796-.697.996-.474.201-1.408.317-2.815.346-2.046.061-3.624.18-4.722.328m.112 4.581c-.76.387-1.338.896-1.75 1.563a4.2 4.2 0 0 0-.607 2.21c0 1.238.459 2.306 1.387 3.182C-2.415.241-1.222.69.229.69c1.185 0 2.214-.28 3.084-.864h2.642c.393 0 .618-.013.686-.035a.4.4 0 0 0 .132-.116c.052-.085.083-.23.083-.436 0-.238-.025-.413-.07-.496a.23.23 0 0 0-.145-.106c-.068-.027-.293-.039-.69-.039H4.323q.773-.986.771-2.519c0-1.16-.451-2.162-1.336-2.985-.89-.829-2.082-1.248-3.571-1.248-.619 0-1.249.091-1.896.294-.38-.358-.639-.656-.767-.915-.139-.266-.207-.482-.207-.657 0-.167.074-.31.229-.463.145-.141.442-.248.877-.307.248-.047.89-.082 1.902-.111 1.866-.059 3.079-.13 3.627-.223.845-.117 1.522-.435 2.025-.936.503-.505.754-1.122.754-1.859 0-1.013-.483-1.978-1.443-2.87-1.407-1.313-3.251-1.971-5.524-1.971-1.747 0-3.224.385-4.429 1.175-.681.455-1.016.922-1.016 1.416 0 .209.049.432.142.65.151.342.464.79.934 1.391.062.086.52.573 1.361 1.465-.468.294-.802.542-.992.772a1.13 1.13 0 0 0-.294.759q-.001.484.38 1.12c.258.435.851 1.047 1.773 1.821" style="fill:#231f20;fill-opacity:1;fill-rule:nonzero;stroke:none" transform="matrix(2.98613 0 0 -2.98613 227.12 23.576)"/><path d="M0 0h5.845v-.5h-.283c-.413 0-.719-.096-.925-.265a.85.85 0 0 1-.303-.66c0-.362.145-.849.451-1.474l3.047-6.322 2.789 6.907c.154.38.232.744.232 1.121a.6.6 0 0 1-.096.361.7.7 0 0 1-.343.236c-.152.061-.428.096-.815.096V0h4.043v-.5c-.336-.035-.596-.112-.777-.219-.185-.113-.384-.312-.6-.605-.084-.132-.246-.475-.468-1.049l-5.064-12.46c-.494-1.215-1.139-2.123-1.941-2.742-.8-.624-1.571-.922-2.312-.922-.539 0-.98.144-1.332.462q-.518.457-.518 1.063c0 .378.124.673.376.91.251.241.603.348 1.039.348.303 0 .719-.098 1.238-.291.364-.125.596-.205.69-.205.274 0 .567.148.896.428.322.278.648.822.974 1.623l.883 2.176-4.498 9.4c-.137.285-.357.633-.654 1.055q-.343.472-.561.648C.803-.744.464-.612 0-.5z" style="fill:#231f20;fill-opacity:1;fill-rule:nonzero;stroke:none" transform="matrix(2.98613 0 0 -2.98613 248.748 22.606)"/><path d="M0 0h.705c.149 0 .269.009.352.052.087.018.149.08.193.145a.4.4 0 0 1 .069.229.37.37 0 0 1-.13.287C1.106.788.97.826.79.826H0zm-.329-1.393v2.502H.77c.223 0 .39-.028.51-.08a.53.53 0 0 0 .274-.226.74.74 0 0 0 .102-.377.6.6 0 0 0-.174-.449Q1.317-.212.957-.261a1 1 0 0 0 .197-.123q.145-.131.271-.325l.435-.684h-.41l-.332.517c-.096.141-.177.264-.239.341a1 1 0 0 1-.167.178C.666-.328.616-.316.564-.3a.8.8 0 0 1-.188.017H0v-1.11z" style="fill:#231f20;fill-opacity:1;fill-rule:nonzero;stroke:none" transform="matrix(2.98613 0 0 -2.98613 290.399 15.973)"/><path d="M0 0c0-.999-.813-1.821-1.809-1.821A1.82 1.82 0 0 0-3.624 0a1.81 1.81 0 0 0 1.815 1.812A1.81 1.81 0 0 0 0 0z" style="fill:none;stroke:#231f20;stroke-width:.17900001;stroke-linecap:butt;stroke-linejoin:miter;stroke-miterlimit:4;stroke-opacity:1;stroke-dasharray:none" transform="matrix(2.98613 0 0 -2.98613 297.733 16.117)"/></svg>