<svg xmlns="http://www.w3.org/2000/svg" width="400" height="100" viewBox="0 0 400 100"><path fill="#fff" d="M302.55 60.148h-11.7l-3 9h-6.5l13.4-38.5h8l13.4 38.5h-7.1l-10.6-31.6-5.8 16.9h8.2zm-117-29.4v25.4c0 8.9-5.8 13.6-14.9 13.6-9 0-14.8-4.7-14.8-13.6v-25.4h6.5v25.4c0 5.2 3.2 7.9 8.2 7.9 5.2 0 8.4-2.7 8.4-7.9v-25.4zm21.2 11.9v26.5h-6.5v-38.5h6.1l17 26.5v-26.5h6.5v38.5h-6.1zm120.4-11.9h6.5v38.5h-6.5zm51.1 24.6c0 9-5.9 13.8-15.2 13.8h-14.5v-38.5h14.6c9.2 0 15.1 4.8 15.1 13.8zm-6.6-10.8c0-5.3-3.3-8.1-8.5-8.1h-8.1v27.1h8c5.3 0 8.6-2.8 8.6-8.1zm-107.5 10.1c4.3-1.6 6.9-5.3 6.9-11.5 0-8.7-5.1-12.4-12.8-12.4h-13.6v38.5h6.5v-32.8h6.9c3.8 0 6.2 1.8 6.2 6.7s-2.4 6.8-6.2 6.8h-3.4l9.2 19.4h7.5z" class="st0"/><linearGradient id="a" x1="68.07" x2="154.073" y1="81.489" y2="-4.514" gradientTransform="translate(-32.085 11.251)" gradientUnits="userSpaceOnUse"><stop offset="0" stop-color="#e32929"/><stop offset="1" stop-color="#ff8d30"/></linearGradient><path fill="url(#a)" d="M75.715 30.451h6.5v38.5h-6.5zm-56.9 38.5h-6.5v-38.5h6.5zm25.2 4.6h6.5v14.7h-6.5zm-15.9-16.5h6.5v23.8h-6.5zm31.7 0h6.5v23.8h-6.5zm79.4-26.6h6.5v38.5h-6.5zm-25.2-4.5h-6.5v-14.7h6.5zm15.9 16.4h-6.5v-23.7h6.5zm-31.8 0h-6.5v-23.7h6.5z" style="fill:url(#a)"/></svg>